<svg width="44" height="15" viewBox="0 0 44 15" fill="none" xmlns="http://www.w3.org/2000/svg">
<path d="M36.3877 8.08466e-06C34.5691 8.08466e-06 32.9008 0.623494 31.5918 1.66264C30.237 0.584823 28.5429 -0.00251335 26.7959 8.08466e-06C24.9773 8.08466e-06 23.309 0.623494 22 1.66264C20.6452 0.584823 18.9511 -0.00251335 17.2041 8.08466e-06C15.3855 8.08466e-06 13.7172 0.623494 12.4082 1.66264C11.2914 0.77691 9.94061 0.218553 8.51238 0.0522528C7.08416 -0.114047 5.63695 0.118517 4.33841 0.723001C3.03988 1.32749 1.94317 2.27915 1.17535 3.46774C0.40752 4.65633 0 6.03321 0 7.43884C0 8.84448 0.40752 10.2214 1.17535 11.4099C1.94317 12.5985 3.03988 13.5502 4.33841 14.1547C5.63695 14.7592 7.08416 14.9917 8.51238 14.8254C9.94061 14.6591 11.2914 14.1008 12.4082 13.215C13.7172 14.2542 15.3855 14.8777 17.2041 14.8777C19.0228 14.8777 20.6911 14.2542 22 13.215C23.309 14.2542 24.9773 14.8777 26.7959 14.8777C28.6145 14.8777 30.2828 14.2542 31.5918 13.215C32.5379 13.9654 33.6545 14.4828 34.8477 14.7237C36.0409 14.9647 37.2759 14.9223 38.4488 14.5999C39.6217 14.2776 40.6983 13.6848 41.5882 12.8713C42.478 12.0579 43.1549 11.0476 43.5622 9.92537C43.9695 8.80313 44.0952 7.60174 43.9286 6.42218C43.7621 5.24262 43.3083 4.11937 42.6053 3.14682C41.9023 2.17428 40.9707 1.38087 39.8887 0.833278C38.8068 0.28569 37.6061 -7.25934e-05 36.3877 8.08466e-06ZM31.5918 10.782C30.8774 9.80718 30.494 8.63789 30.4955 7.43884C30.4955 6.19187 30.9025 5.03806 31.5918 4.09567C32.2811 5.03806 32.6881 6.19187 32.6881 7.43884C32.6881 8.68581 32.2811 9.83962 31.5918 10.782ZM22 10.782C21.2856 9.80718 20.9022 8.63789 20.9037 7.43884C20.9037 6.19187 21.3107 5.03806 22 4.09567C22.6893 5.03806 23.0963 6.19187 23.0963 7.43884C23.0963 8.68581 22.6893 9.83962 22 10.782ZM12.4082 10.782C11.6939 9.80718 11.3104 8.63789 11.3119 7.43884C11.3119 6.19187 11.7189 5.03806 12.4082 4.09567C13.0976 5.03806 13.5045 6.19187 13.5045 7.43884C13.5045 8.68581 13.0976 9.83962 12.4082 10.782ZM1.72014 7.43884C1.72058 6.36438 2.02862 5.31147 2.60942 4.39917C3.19023 3.48687 4.02064 2.75158 5.00675 2.27644C5.99286 1.8013 7.09533 1.60527 8.1895 1.71051C9.28366 1.81576 10.3259 2.21808 11.1983 2.87199C10.1559 4.17619 9.59053 5.78397 9.5923 7.43884C9.5923 9.1606 10.1936 10.7462 11.1983 12.0057C10.3259 12.6596 9.28366 13.0619 8.1895 13.1672C7.09533 13.2724 5.99286 13.0764 5.00675 12.6012C4.02064 12.1261 3.19023 11.3908 2.60942 10.4785C2.02862 9.56622 1.72058 8.51331 1.72014 7.43884ZM13.6182 12.0057C14.6606 10.7015 15.2259 9.09372 15.2242 7.43884C15.2242 5.71709 14.6229 4.1315 13.6182 2.87199C14.6461 2.09867 15.907 1.67973 17.2041 1.68055C18.5534 1.68055 19.7964 2.12488 20.7901 2.87199C19.7472 4.17592 19.1818 5.78388 19.1841 7.43884C19.1841 9.1606 19.7854 10.7462 20.7901 12.0057C19.7622 12.779 18.5013 13.198 17.2041 13.1971C15.9068 13.1989 14.6456 12.7799 13.6182 12.0057ZM23.21 12.0057C24.2529 10.7018 24.8183 9.09381 24.816 7.43884C24.816 5.71709 24.2146 4.1315 23.21 2.87019C24.2036 2.12488 25.4466 1.67876 26.7959 1.67876C28.1452 1.67876 29.3882 2.12309 30.3818 2.87019C29.339 4.17413 28.7735 5.78209 28.7759 7.43705C28.7759 9.1588 29.3772 10.7444 30.3818 12.0039C29.354 12.7772 28.0931 13.1962 26.7959 13.1953C25.4987 13.1984 24.2372 12.7799 23.21 12.0057ZM36.3877 13.1971C35.0904 13.1989 33.8292 12.7799 32.8018 12.0057C33.8439 10.7014 34.4092 9.09367 34.4078 7.43884C34.4078 5.71709 33.8064 4.1315 32.8018 2.87199C33.5446 2.31447 34.4127 1.93803 35.3341 1.77389C36.2556 1.60976 37.2037 1.66265 38.1001 1.92818C38.9964 2.19372 39.815 2.66424 40.4881 3.30074C41.1612 3.93724 41.6693 4.72138 41.9703 5.58814C42.2713 6.45489 42.3566 7.37929 42.219 8.28467C42.0814 9.19006 41.725 10.0504 41.1792 10.7942C40.6335 11.5381 39.9141 12.1441 39.0808 12.562C38.2475 12.9799 37.3243 13.1976 36.3877 13.1971Z" fill="black"/>
</svg>
