<svg width="67" height="22" viewBox="0 0 67 22" fill="none" xmlns="http://www.w3.org/2000/svg">
<path d="M55.4085 1.16641e-05C52.6392 1.16641e-05 50.0989 0.899546 48.1057 2.39877C46.0427 0.843753 43.4629 -0.00362614 40.8028 1.16641e-05C38.0336 1.16641e-05 35.4932 0.899546 33.5 2.39877C31.437 0.843753 28.8573 -0.00362614 26.1972 1.16641e-05C23.4279 1.16641e-05 20.8875 0.899546 18.8943 2.39877C17.1937 1.12089 15.1368 0.315317 12.962 0.0753877C10.7872 -0.164542 8.58352 0.17099 6.60621 1.04311C4.62891 1.91523 2.95892 3.28824 1.78973 5.00308C0.62054 6.71792 0 8.7044 0 10.7324C0 12.7604 0.62054 14.7468 1.78973 16.4617C2.95892 18.1765 4.62891 19.5495 6.60621 20.4217C8.58352 21.2938 10.7872 21.6293 12.962 21.3894C15.1368 21.1495 17.1937 20.3439 18.8943 19.066C20.8875 20.5652 23.4279 21.4648 26.1972 21.4648C28.9664 21.4648 31.5068 20.5652 33.5 19.066C35.4932 20.5652 38.0336 21.4648 40.8028 21.4648C43.5721 21.4648 46.1125 20.5652 48.1057 19.066C49.5463 20.1485 51.2465 20.895 53.0635 21.2427C54.8804 21.5903 56.7609 21.5291 58.547 21.064C60.333 20.599 61.9724 19.7437 63.3273 18.5701C64.6823 17.3965 65.7131 15.9389 66.3333 14.3198C66.9535 12.7007 67.1448 10.9674 66.8912 9.2656C66.6377 7.56379 65.9466 5.94321 64.8761 4.54007C63.8057 3.13694 62.387 1.99224 60.7396 1.20221C59.0921 0.41218 57.2638 -0.000104734 55.4085 1.16641e-05ZM48.1057 15.5558C47.0178 14.1493 46.434 12.4623 46.4363 10.7324C46.4363 8.93332 47.056 7.26866 48.1057 5.90902C49.1553 7.26866 49.775 8.93332 49.775 10.7324C49.775 12.5315 49.1553 14.1961 48.1057 15.5558ZM33.5 15.5558C32.4122 14.1493 31.8283 12.4623 31.8306 10.7324C31.8306 8.93332 32.4504 7.26866 33.5 5.90902C34.5496 7.26866 35.1694 8.93332 35.1694 10.7324C35.1694 12.5315 34.5496 14.1961 33.5 15.5558ZM18.8943 15.5558C17.8065 14.1493 17.2227 12.4623 17.225 10.7324C17.225 8.93332 17.8447 7.26866 18.8943 5.90902C19.944 7.26866 20.5637 8.93332 20.5637 10.7324C20.5637 12.5315 19.944 14.1961 18.8943 15.5558ZM2.61931 10.7324C2.61997 9.1822 3.08902 7.66312 3.97344 6.3469C4.85785 5.03068 6.12234 3.96983 7.62391 3.28433C9.12549 2.59882 10.8042 2.316 12.4704 2.46784C14.1365 2.61969 15.7235 3.20014 17.0519 4.14356C15.4647 6.0252 14.6037 8.34482 14.6064 10.7324C14.6064 13.2164 15.5221 15.5041 17.0519 17.3212C15.7235 18.2646 14.1365 18.8451 12.4704 18.9969C10.8042 19.1488 9.12549 18.866 7.62391 18.1804C6.12234 17.4949 4.85785 16.4341 3.97344 15.1179C3.08902 13.8017 2.61997 12.2826 2.61931 10.7324ZM20.7368 17.3212C22.324 15.4396 23.1849 13.12 23.1822 10.7324C23.1822 8.24833 22.2666 5.96072 20.7368 4.14356C22.3019 3.02786 24.222 2.42343 26.1972 2.42462C28.2518 2.42462 30.1445 3.06567 31.6575 4.14356C30.0696 6.02481 29.2085 8.34469 29.2121 10.7324C29.2121 13.2164 30.1277 15.5041 31.6575 17.3212C30.0924 18.4369 28.1724 19.0413 26.1972 19.0402C24.2217 19.0427 22.3012 18.4381 20.7368 17.3212ZM35.3425 17.3212C36.9304 15.44 37.7915 13.1201 37.7879 10.7324C37.7879 8.24833 36.8723 5.96072 35.3425 4.14097C36.8555 3.06567 38.7482 2.42203 40.8028 2.42203C42.8574 2.42203 44.7502 3.06308 46.2632 4.14097C44.6752 6.02222 43.8142 8.3421 43.8178 10.7298C43.8178 13.2139 44.7334 15.5015 46.2632 17.3186C44.6981 18.4343 42.778 19.0388 40.8028 19.0376C38.8275 19.042 36.9066 18.4383 35.3425 17.3212ZM55.4085 19.0402C53.433 19.0427 51.5125 18.4381 49.9481 17.3212C51.5349 15.4394 52.3958 13.1199 52.3936 10.7324C52.3936 8.24833 51.4779 5.96072 49.9481 4.14356C51.0792 3.33919 52.4011 2.79609 53.8042 2.55928C55.2072 2.32248 56.6511 2.39879 58.0159 2.78188C59.3808 3.16498 60.6274 3.84383 61.6523 4.76214C62.6772 5.68046 63.4509 6.81177 63.9093 8.06228C64.3676 9.31279 64.4975 10.6465 64.288 11.9527C64.0785 13.259 63.5357 14.5001 62.7047 15.5734C61.8736 16.6466 60.7782 17.5209 59.5094 18.1238C58.2405 18.7267 56.8347 19.0408 55.4085 19.0402Z" fill="black"/>
</svg>
