<svg width="152" height="51" viewBox="0 0 152 51" fill="none" xmlns="http://www.w3.org/2000/svg">
<path d="M125.703 2.7632e-05C119.42 2.7632e-05 113.657 2.131 109.135 5.68262C104.455 1.99883 98.6025 -0.00859021 92.5677 2.7632e-05C86.2852 2.7632e-05 80.522 2.131 76.0001 5.68262C71.3199 1.99883 65.4673 -0.00859021 59.4324 2.7632e-05C53.1499 2.7632e-05 47.3867 2.131 42.8648 5.68262C39.0066 2.65535 34.3403 0.746977 29.4064 0.178591C24.4725 -0.389794 19.4731 0.40507 14.9872 2.4711C10.5014 4.53713 6.71278 7.78976 4.06029 11.8522C1.40779 15.9146 0 20.6205 0 25.4247C0 30.229 1.40779 34.9349 4.06029 38.9973C6.71278 43.0597 10.5014 46.3123 14.9872 48.3784C19.4731 50.4444 24.4725 51.2392 29.4064 50.6709C34.3403 50.1025 39.0066 48.1941 42.8648 45.1668C47.3867 48.7184 53.1499 50.8494 59.4324 50.8494C65.715 50.8494 71.4782 48.7184 76.0001 45.1668C80.522 48.7184 86.2852 50.8494 92.5677 50.8494C98.8502 50.8494 104.613 48.7184 109.135 45.1668C112.404 47.7313 116.261 49.4996 120.383 50.3233C124.505 51.1469 128.771 51.0018 132.823 49.9001C136.875 48.7984 140.594 46.7723 143.668 43.9921C146.742 41.2119 149.081 37.7589 150.488 33.9233C151.895 30.0876 152.329 25.9815 151.753 21.95C151.178 17.9184 149.61 14.0793 147.182 10.7553C144.753 7.43131 141.535 4.71957 137.797 2.84801C134.06 0.976442 129.912 -0.000248112 125.703 2.7632e-05ZM109.135 36.8511C106.667 33.5193 105.343 29.5229 105.348 25.4247C105.348 21.1628 106.754 17.2193 109.135 13.9983C111.517 17.2193 112.923 21.1628 112.923 25.4247C112.923 29.6867 111.517 33.6302 109.135 36.8511ZM76.0001 36.8511C73.5322 33.5193 72.2076 29.5229 72.2128 25.4247C72.2128 21.1628 73.6188 17.2193 76.0001 13.9983C78.3813 17.2193 79.7873 21.1628 79.7873 25.4247C79.7873 29.6867 78.3813 33.6302 76.0001 36.8511ZM42.8648 36.8511C40.3969 33.5193 39.0723 29.5229 39.0776 25.4247C39.0776 21.1628 40.4835 17.2193 42.8648 13.9983C45.2461 17.2193 46.6521 21.1628 46.6521 25.4247C46.6521 29.6867 45.2461 33.6302 42.8648 36.8511ZM5.94231 25.4247C5.94381 21.7524 7.00794 18.1537 9.01437 15.0356C11.0208 11.9175 13.8895 9.40443 17.2961 7.78048C20.7026 6.15654 24.5111 5.48654 28.291 5.84625C32.0708 6.20596 35.6712 7.58103 38.6849 9.81597C35.0841 14.2735 33.1309 19.7686 33.137 25.4247C33.137 31.3094 35.2143 36.7287 38.6849 41.0335C35.6712 43.2684 32.0708 44.6435 28.291 45.0032C24.5111 45.3629 20.7026 44.6929 17.2961 43.069C13.8895 41.445 11.0208 38.9319 9.01437 35.8138C7.00794 32.6957 5.94381 29.0971 5.94231 25.4247ZM47.0447 41.0335C50.6455 36.5759 52.5987 31.0808 52.5926 25.4247C52.5926 19.5401 50.5153 14.1208 47.0447 9.81597C50.5954 7.17292 54.9514 5.74103 59.4324 5.74386C64.0937 5.74386 68.3876 7.26248 71.8202 9.81597C68.2176 14.2726 66.2642 19.7683 66.2723 25.4247C66.2723 31.3094 68.3496 36.7287 71.8202 41.0335C68.2694 43.6765 63.9135 45.1084 59.4324 45.1056C54.9508 45.1117 50.5938 43.6794 47.0447 41.0335ZM80.18 41.0335C83.7825 36.5768 85.7359 31.0811 85.7278 25.4247C85.7278 19.5401 83.6506 14.1208 80.18 9.80985C83.6126 7.26248 87.9065 5.73773 92.5677 5.73773C97.2289 5.73773 101.523 7.25635 104.955 9.80985C101.353 14.2665 99.3995 19.7622 99.4075 25.4186C99.4075 31.3033 101.485 36.7226 104.955 41.0274C101.405 43.6704 97.0488 45.1023 92.5677 45.0995C88.0863 45.1101 83.7285 43.6797 80.18 41.0335ZM125.703 45.1056C121.221 45.1117 116.864 43.6794 113.315 41.0335C116.915 36.5755 118.868 31.0806 118.863 25.4247C118.863 19.5401 116.786 14.1208 113.315 9.81597C115.881 7.91046 118.88 6.62386 122.063 6.06287C125.246 5.50188 128.522 5.68266 131.618 6.59021C134.715 7.49776 137.543 9.10593 139.868 11.2814C142.193 13.4568 143.948 16.1369 144.988 19.0993C146.028 22.0617 146.323 25.2212 145.847 28.3156C145.372 31.4101 144.141 34.3504 142.255 36.8928C140.37 39.4352 137.885 41.5065 135.006 42.9347C132.128 44.363 128.938 45.1072 125.703 45.1056Z" fill="white"/>
</svg>
