<svg width="67" height="22" viewBox="0 0 67 22" fill="none" xmlns="http://www.w3.org/2000/svg">
<path d="M55.4083 1.16641e-05C52.639 1.16641e-05 50.0987 0.899543 48.1055 2.39876C46.0425 0.84375 43.4628 -0.00362612 40.8027 1.16641e-05C38.0334 1.16641e-05 35.4931 0.899543 33.4999 2.39876C31.4369 0.84375 28.8572 -0.00362612 26.1971 1.16641e-05C23.4278 1.16641e-05 20.8875 0.899543 18.8943 2.39876C17.1936 1.12088 15.1368 0.315316 12.962 0.0753875C10.7872 -0.164541 8.58349 0.170989 6.60619 1.04311C4.62889 1.91522 2.95891 3.28823 1.78972 5.00307C0.620538 6.7179 0 8.70437 0 10.7323C0 12.7603 0.620538 14.7468 1.78972 16.4616C2.95891 18.1765 4.62889 19.5495 6.60619 20.4216C8.58349 21.2937 10.7872 21.6292 12.962 21.3893C15.1368 21.1494 17.1936 20.3438 18.8943 19.0659C20.8875 20.5652 23.4278 21.4647 26.1971 21.4647C28.9663 21.4647 31.5067 20.5652 33.4999 19.0659C35.4931 20.5652 38.0334 21.4647 40.8027 21.4647C43.5719 21.4647 46.1123 20.5652 48.1055 19.0659C49.5461 20.1484 51.2464 20.8949 53.0633 21.2426C54.8802 21.5903 56.7607 21.529 58.5468 21.064C60.3328 20.5989 61.9722 19.7436 63.3271 18.5701C64.682 17.3965 65.7129 15.9389 66.3331 14.3198C66.9532 12.7007 67.1446 10.9674 66.891 9.26557C66.6374 7.56377 65.9464 5.94319 64.8759 4.54006C63.8054 3.13692 62.3868 1.99224 60.7393 1.20221C59.0918 0.412178 57.2636 -0.000104734 55.4083 1.16641e-05ZM48.1055 15.5557C47.0177 14.1493 46.4338 12.4623 46.4361 10.7323C46.4361 8.93329 47.0558 7.26864 48.1055 5.909C49.1551 7.26864 49.7749 8.93329 49.7749 10.7323C49.7749 12.5314 49.1551 14.1961 48.1055 15.5557ZM33.4999 15.5557C32.4121 14.1493 31.8282 12.4623 31.8305 10.7323C31.8305 8.93329 32.4502 7.26864 33.4999 5.909C34.5495 7.26864 35.1692 8.93329 35.1692 10.7323C35.1692 12.5314 34.5495 14.1961 33.4999 15.5557ZM18.8943 15.5557C17.8065 14.1493 17.2226 12.4623 17.2249 10.7323C17.2249 8.93329 17.8446 7.26864 18.8943 5.909C19.9439 7.26864 20.5636 8.93329 20.5636 10.7323C20.5636 12.5314 19.9439 14.1961 18.8943 15.5557ZM2.6193 10.7323C2.61996 9.18217 3.08901 7.66309 3.97342 6.34687C4.85783 5.03066 6.12232 3.96982 7.62388 3.28432C9.12545 2.59881 10.8042 2.31599 12.4703 2.46783C14.1364 2.61968 15.7234 3.20012 17.0518 4.14354C15.4646 6.02517 14.6037 8.34479 14.6064 10.7323C14.6064 13.2164 15.522 15.504 17.0518 17.3212C15.7234 18.2646 14.1364 18.845 12.4703 18.9969C10.8042 19.1487 9.12545 18.8659 7.62388 18.1804C6.12232 17.4949 4.85783 16.434 3.97342 15.1178C3.08901 13.8016 2.61996 12.2825 2.6193 10.7323ZM20.7367 17.3212C22.3239 15.4395 23.1849 13.1199 23.1822 10.7323C23.1822 8.2483 22.2665 5.9607 20.7367 4.14354C22.3018 3.02785 24.2219 2.42342 26.1971 2.42461C28.2517 2.42461 30.1444 3.06566 31.6574 4.14354C30.0695 6.02479 29.2084 8.34466 29.212 10.7323C29.212 13.2164 30.1276 15.504 31.6574 17.3212C30.0923 18.4368 28.1723 19.0413 26.1971 19.0401C24.2216 19.0426 22.3011 18.4381 20.7367 17.3212ZM35.3423 17.3212C36.9303 15.4399 37.7913 13.12 37.7878 10.7323C37.7878 8.2483 36.8721 5.9607 35.3423 4.14096C36.8554 3.06565 38.7481 2.42202 40.8027 2.42202C42.8573 2.42202 44.75 3.06307 46.263 4.14096C44.6751 6.0222 43.814 8.34207 43.8176 10.7298C43.8176 13.2138 44.7332 15.5014 46.263 17.3186C44.6979 18.4343 42.7779 19.0387 40.8027 19.0375C38.8274 19.042 36.9065 18.4382 35.3423 17.3212ZM55.4083 19.0401C53.4328 19.0426 51.5123 18.4381 49.9479 17.3212C51.5348 15.4393 52.3956 13.1198 52.3934 10.7323C52.3934 8.2483 51.4777 5.9607 49.9479 4.14354C51.079 3.33918 52.4009 2.79608 53.804 2.55927C55.207 2.32247 56.6509 2.39878 58.0157 2.78187C59.3806 3.16497 60.6271 3.84382 61.652 4.76213C62.6769 5.68044 63.4507 6.81175 63.909 8.06225C64.3674 9.31275 64.4972 10.6464 64.2877 11.9527C64.0782 13.2589 63.5355 14.5001 62.7044 15.5733C61.8734 16.6465 60.778 17.5208 59.5092 18.1237C58.2403 18.7266 56.8345 19.0408 55.4083 19.0401Z" fill="white"/>
</svg>
