<svg width="42" height="34" viewBox="0 0 42 34" fill="none" xmlns="http://www.w3.org/2000/svg">
<path d="M28.9596 4.82107e-09C29.9948 -3.96565e-05 31.014 0.244631 31.9263 0.712221C32.8387 1.17981 33.6158 1.85581 34.1887 2.68L34.4084 3.024L38.5807 10H41.0122C41.2051 9.99996 41.3922 10.0636 41.5416 10.1803C41.6911 10.2969 41.7938 10.4593 41.8324 10.64L41.8491 10.8V11.75C41.8494 12.0696 41.7495 12.382 41.5622 12.6469C41.375 12.9117 41.1091 13.1169 40.7987 13.236L40.5309 13.316C41.315 14.8724 41.6639 16.5964 41.5436 18.32L41.4871 18.894L39.9701 30.496C39.8508 31.4097 39.4053 32.2561 38.7088 32.8922C38.0123 33.5284 37.1076 33.9154 36.1472 33.988L35.8166 34H33.4793C32.4235 34.0003 31.4066 33.6192 30.6324 32.933C29.8583 32.2468 29.384 31.3063 29.3049 30.3L29.2944 30H12.5547C12.5551 31.0092 12.1563 31.9811 11.4384 32.7211C10.7205 33.4611 9.73653 33.9143 8.6837 33.99L8.36983 34H6.03255C5.06898 34.0006 4.13471 33.6833 3.38752 33.1017C2.64032 32.5202 2.12598 31.71 1.93134 30.808L1.87903 30.496L0.361995 18.896C0.137827 17.1802 0.382948 15.4382 1.07343 13.84L1.31825 13.314L1.26803 13.304C0.943327 13.2266 0.650359 13.0579 0.426942 12.8198C0.203524 12.5816 0.0599128 12.2849 0.0146472 11.968L1.74474e-08 11.75V10.8C-3.93634e-05 10.6156 0.0665877 10.4368 0.188605 10.2939C0.310622 10.1511 0.480534 10.0529 0.669586 10.016L0.836983 10H3.27051L7.44078 3.024C7.95447 2.16465 8.68259 1.44011 9.56026 0.914931C10.4379 0.389753 11.4379 0.0802494 12.471 0.0139999L12.8895 4.82107e-09H28.9596ZM37.162 16.072C36.0801 17.2053 34.5792 17.8918 32.9771 17.986L32.5461 18H9.30307C8.43564 18.0054 7.5767 17.8365 6.78189 17.5044C5.98708 17.1723 5.27412 16.6843 4.6892 16.072C4.51645 16.6761 4.44373 17.3024 4.47367 17.928L4.51552 18.398L6.03255 30H8.36983V28C8.3699 27.5101 8.55806 27.0373 8.89862 26.6713C9.23919 26.3052 9.70848 26.0713 10.2175 26.014L10.4623 26H31.3869C31.8994 26.0001 32.394 26.1799 32.777 26.5054C33.16 26.8309 33.4047 27.2795 33.4647 27.766L33.4793 28V30H35.8166L37.3336 18.398C37.4382 17.614 37.3776 16.824 37.162 16.072ZM7.81951 19.796L13.5591 22.76C14.3396 23.164 14.0153 24.298 13.1281 24.264L8.28613 24.078C7.74617 24.0573 7.23551 23.8378 6.86108 23.4654C6.48665 23.093 6.27748 22.5965 6.27737 22.08V20.68C6.27727 20.5067 6.32427 20.3364 6.41375 20.1858C6.50323 20.0351 6.63214 19.9092 6.78783 19.8205C6.94352 19.7318 7.12066 19.6833 7.30188 19.6797C7.4831 19.6761 7.6622 19.7175 7.82161 19.8L7.81951 19.796ZM35.5697 20.676V22.078C35.5701 22.5949 35.3612 23.0918 34.9867 23.4647C34.6122 23.8375 34.1012 24.0573 33.5609 24.078L28.719 24.262C27.8318 24.296 27.5054 23.162 28.2879 22.758L34.0254 19.798C34.1849 19.7155 34.3639 19.6741 34.5452 19.6777C34.7264 19.6813 34.9035 19.7298 35.0592 19.8185C35.2149 19.9072 35.3438 20.0331 35.4333 20.1838C35.5228 20.3344 35.5698 20.5027 35.5697 20.676ZM28.9596 4H12.8895C12.5207 4.00011 12.1585 4.0934 11.8395 4.27042C11.5206 4.44744 11.2562 4.70189 11.0733 5.008L7.48681 11.008C7.30506 11.3121 7.21006 11.6565 7.21129 12.0068C7.21253 12.357 7.30997 12.7008 7.49387 13.0037C7.67776 13.3067 7.94166 13.5581 8.25916 13.733C8.57667 13.9078 8.93664 13.9999 9.30307 14H32.5461C32.9125 13.9999 33.2725 13.9078 33.59 13.733C33.9075 13.5581 34.1714 13.3067 34.3553 13.0037C34.5392 12.7008 34.6366 12.357 34.6378 12.0068C34.6391 11.6565 34.5441 11.3121 34.3623 11.008L30.7759 5.008C30.5927 4.7016 30.3281 4.44696 30.0087 4.26992C29.6894 4.09289 29.3267 3.99976 28.9575 4H28.9596Z" fill="black"/>
</svg>
