<svg width="43" height="41" viewBox="0 0 43 41" fill="none" xmlns="http://www.w3.org/2000/svg">
<path d="M15.4002 41L14.5563 34.44C14.0992 34.2692 13.6689 34.0642 13.2652 33.825C12.8616 33.5859 12.4657 33.3296 12.0775 33.0563L5.80143 35.6188L0 25.8813L5.43225 21.8838C5.39709 21.6446 5.37951 21.4143 5.37951 21.1929V19.8092C5.37951 19.5864 5.39709 19.3554 5.43225 19.1163L0 15.1188L5.80143 5.38126L12.0775 7.94376C12.4643 7.67042 12.8686 7.41417 13.2905 7.17501C13.7125 6.93584 14.1344 6.73084 14.5563 6.56001L15.4002 0H27.003L27.8469 6.56001C28.3039 6.73084 28.735 6.93584 29.1401 7.17501C29.5451 7.41417 29.9403 7.67042 30.3257 7.94376L36.6017 5.38126L42.4032 15.1188L36.9709 19.1163C37.0061 19.3554 37.0237 19.5864 37.0237 19.8092V21.1909C37.0237 21.4136 36.9885 21.6446 36.9182 21.8838L42.3504 25.8813L36.549 35.6188L30.3257 33.0563C29.9389 33.3296 29.5346 33.5859 29.1126 33.825C28.6907 34.0642 28.2688 34.2692 27.8469 34.44L27.003 41H15.4002ZM19.092 36.9H23.2585L23.9968 31.4675C25.0868 31.1942 26.098 30.7931 27.0304 30.2642C27.9629 29.7353 28.8152 29.0943 29.5873 28.3413L34.8086 30.4425L36.8654 26.9575L32.3298 23.6263C32.5056 23.1479 32.6287 22.6443 32.699 22.1154C32.7693 21.5865 32.8045 21.0481 32.8045 20.5C32.8045 19.9534 32.7693 19.4156 32.699 18.8867C32.6287 18.3578 32.5056 17.8535 32.3298 17.3738L36.8654 14.0425L34.8086 10.5575L29.5873 12.71C28.8138 11.9242 27.9615 11.2668 27.0304 10.7379C26.0994 10.209 25.0882 9.80721 23.9968 9.53251L23.3112 4.1H19.1447L18.4064 9.53251C17.3164 9.80584 16.3059 10.2076 15.3748 10.7379C14.4438 11.2682 13.5908 11.9085 12.8159 12.6588L7.5946 10.5575L5.53773 14.0425L10.0734 17.3225C9.89759 17.835 9.77453 18.3475 9.70421 18.86C9.63389 19.3725 9.59873 19.9192 9.59873 20.5C9.59873 21.0467 9.63389 21.5763 9.70421 22.0888C9.77453 22.6013 9.89759 23.1138 10.0734 23.6263L5.53773 26.9575L7.5946 30.4425L12.8159 28.29C13.5894 29.0759 14.4424 29.7339 15.3748 30.2642C16.3073 30.7944 17.3178 31.1956 18.4064 31.4675L19.092 36.9ZM21.3071 27.675C23.3464 27.675 25.0868 26.9746 26.5284 25.5738C27.9699 24.1729 28.6907 22.4817 28.6907 20.5C28.6907 18.5184 27.9699 16.8271 26.5284 15.4263C25.0868 14.0254 23.3464 13.325 21.3071 13.325C19.2326 13.325 17.4831 14.0254 16.0584 15.4263C14.6337 16.8271 13.922 18.5184 13.9234 20.5C13.9234 22.4817 14.6358 24.1729 16.0605 25.5738C17.4852 26.9746 19.234 27.675 21.3071 27.675Z" fill="black"/>
</svg>
