<svg width="65" height="22" viewBox="0 0 65 22" fill="none" xmlns="http://www.w3.org/2000/svg">
<path d="M53.7545 1.18391e-05C51.0679 1.18391e-05 48.6034 0.913038 46.6697 2.43475C44.6683 0.856408 42.1655 -0.00368052 39.5849 1.18391e-05C36.8983 1.18391e-05 34.4337 0.913038 32.5 2.43475C30.4986 0.856408 27.9959 -0.00368052 25.4152 1.18391e-05C22.7286 1.18391e-05 20.264 0.913038 18.3303 2.43475C16.6805 1.1377 14.685 0.320046 12.5751 0.0765184C10.4652 -0.167009 8.3273 0.173555 6.40902 1.05876C4.49073 1.94396 2.8706 3.33756 1.73631 5.07812C0.602017 6.81868 0 8.83496 0 10.8934C0 12.9518 0.602017 14.968 1.73631 16.7086C2.8706 18.4492 4.49073 19.8428 6.40902 20.728C8.3273 21.6132 10.4652 21.9537 12.5751 21.7102C14.685 21.4667 16.6805 20.649 18.3303 19.352C20.264 20.8737 22.7286 21.7867 25.4152 21.7867C28.1018 21.7867 30.5663 20.8737 32.5 19.352C34.4337 20.8737 36.8983 21.7867 39.5849 21.7867C42.2715 21.7867 44.736 20.8737 46.6697 19.352C48.0673 20.4507 49.7168 21.2084 51.4795 21.5613C53.2422 21.9142 55.0666 21.852 56.7993 21.38C58.5321 20.9079 60.1225 20.0398 61.437 18.8487C62.7515 17.6575 63.7516 16.178 64.3532 14.5346C64.9549 12.8912 65.1405 11.1319 64.8945 9.40457C64.6485 7.67724 63.9781 6.03235 62.9396 4.60817C61.901 3.18399 60.5248 2.02212 58.9265 1.22024C57.3281 0.418362 55.5545 -0.000106305 53.7545 1.18391e-05ZM46.6697 15.7891C45.6144 14.3615 45.0479 12.6492 45.0501 10.8934C45.0501 9.0673 45.6514 7.37768 46.6697 5.99765C47.688 7.37768 48.2892 9.0673 48.2892 10.8934C48.2892 12.7194 47.688 14.409 46.6697 15.7891ZM32.5 15.7891C31.4447 14.3615 30.8782 12.6492 30.8805 10.8934C30.8805 9.0673 31.4817 7.37768 32.5 5.99765C33.5183 7.37768 34.1196 9.0673 34.1196 10.8934C34.1196 12.7194 33.5183 14.409 32.5 15.7891ZM18.3303 15.7891C17.275 14.3615 16.7086 12.6492 16.7108 10.8934C16.7108 9.0673 17.312 7.37768 18.3303 5.99765C19.3487 7.37768 19.9499 9.0673 19.9499 10.8934C19.9499 12.7194 19.3487 14.409 18.3303 15.7891ZM2.54112 10.8934C2.54176 9.31992 2.99682 7.77805 3.85483 6.44209C4.71284 5.10613 5.93958 4.02938 7.39634 3.33359C8.85309 2.6378 10.4817 2.35074 12.0981 2.50486C13.7145 2.65898 15.2541 3.24813 16.5429 4.2057C15.0031 6.11556 14.1678 8.46998 14.1704 10.8934C14.1704 13.4147 15.0588 15.7366 16.5429 17.581C15.2541 18.5386 13.7145 19.1277 12.0981 19.2819C10.4817 19.436 8.85309 19.1489 7.39634 18.4531C5.93958 17.7573 4.71284 16.6806 3.85483 15.3446C2.99682 14.0087 2.54176 12.4668 2.54112 10.8934ZM20.1178 17.581C21.6576 15.6711 22.4929 13.3167 22.4902 10.8934C22.4902 8.37204 21.6019 6.05012 20.1178 4.2057C21.6362 3.07327 23.4989 2.45977 25.4152 2.46098C27.4085 2.46098 29.2447 3.11165 30.7126 4.2057C29.172 6.11517 28.3367 8.46984 28.3401 10.8934C28.3401 13.4147 29.2284 15.7366 30.7126 17.581C29.1942 18.7134 27.3314 19.3269 25.4152 19.3257C23.4987 19.3283 21.6355 18.7147 20.1178 17.581ZM34.2875 17.581C35.828 15.6715 36.6634 13.3169 36.6599 10.8934C36.6599 8.37204 35.7716 6.05012 34.2875 4.20308C35.7554 3.11165 37.5916 2.45836 39.5849 2.45836C41.5781 2.45836 43.4144 3.10902 44.8822 4.20308C43.3417 6.11255 42.5063 8.46722 42.5098 10.8907C42.5098 13.412 43.3981 15.734 44.8822 17.5784C43.3638 18.7108 41.5011 19.3243 39.5849 19.3231C37.6685 19.3276 35.805 18.7148 34.2875 17.581ZM53.7545 19.3257C51.8381 19.3283 49.9749 18.7147 48.4572 17.581C49.9966 15.671 50.8318 13.3167 50.8296 10.8934C50.8296 8.37204 49.9413 6.05012 48.4572 4.2057C49.5545 3.38928 50.8369 2.83803 52.1981 2.59767C53.5593 2.35731 54.96 2.43476 56.2841 2.82361C57.6083 3.21245 58.8176 3.90149 59.8119 4.83357C60.8062 5.76565 61.5569 6.91394 62.0016 8.1832C62.4463 9.45247 62.5722 10.8061 62.369 12.132C62.1657 13.4578 61.6392 14.7176 60.8329 15.8069C60.0267 16.8962 58.964 17.7837 57.733 18.3956C56.502 19.0076 55.1382 19.3264 53.7545 19.3257Z" fill="white"/>
</svg>
